# Blender v2.93.1 OBJ File: 'asteroid.blend'
# www.blender.org
mtllib asteroid1.mtl
o Cube
v 2.272538 -4.703247 -1.698216
v 2.272538 5.764120 2.272538
v 2.272538 -4.703247 2.846859
v 4.992030 2.164063 -1.346590
v 4.601630 4.228212 -2.792969
v 4.703247 -0.398982 -0.501661
v 3.681271 -2.235703 -2.598640
v 4.545263 1.733128 1.492940
v 3.703695 3.063731 3.121312
v 3.935861 -1.424979 1.777048
v 3.359251 -2.961359 3.668191
v 1.582065 2.177497 -5.768307
v 1.582065 -0.990124 -5.768307
v 2.426955 -1.834725 -5.417320
v -1.464483 1.700232 -5.768307
v -0.879292 -1.463232 -5.768307
v 1.846476 5.294182 -3.080396
v 2.358542 5.613083 -1.823031
v 3.748710 2.911238 -5.592583
v -4.322449 2.995169 2.029446
v -2.737883 5.875997 2.029446
v -0.948966 5.668862 2.418829
v -2.830538 5.750970 -1.609988
v -1.041047 5.591713 -2.464770
v -4.622037 2.239912 2.070694
v -0.916756 -4.482172 -2.471348
v -2.534396 -3.964659 -1.200441
v -2.474269 -4.510791 2.557948
v -4.947374 -1.992846 2.333785
v -1.152725 -2.553044 -5.319898
v -2.122162 2.287473 -5.257151
v -3.918888 1.643167 -3.316919
v -4.527358 2.418469 -1.952070
v -3.770512 -2.047919 -2.154268
v 1.761001 3.105149 5.322383
v 2.406623 3.764292 4.719177
v 0.902170 -0.652850 6.426882
v 2.397508 -2.636329 5.281298
v -0.747117 3.200628 5.567078
v -2.082160 3.778612 5.063156
v -1.260388 -0.713881 6.232338
v -2.861189 -1.105863 5.575778
vt 0.694385 0.425802
vt 0.723440 0.407024
vt 0.729561 0.428332
vt 0.684552 0.461380
vt 0.734784 0.324244
vt 0.731760 0.143039
vt 0.770297 0.289506
vt 0.880346 0.118248
vt 0.953547 0.117796
vt 0.953361 0.207770
vt 0.883539 0.207995
vt 0.687566 0.125573
vt 0.633280 0.199486
vt 0.655404 0.076875
vt 0.693250 0.251192
vt 0.721736 0.265556
vt 0.655852 0.603485
vt 0.634810 0.390739
vt 0.854833 0.402346
vt 0.850539 0.558234
vt 0.829603 0.672856
vt 0.819948 0.524764
vt 0.977205 0.580206
vt 0.971768 0.525787
vt 0.975414 0.267024
vt 0.985750 0.299628
vt 0.917291 0.427710
vt 0.886715 0.462152
vt 0.895090 0.304222
vt 0.932838 0.305794
vt 0.810348 0.676365
vt 0.764377 0.631508
vt 0.767219 0.568708
vt 0.813939 0.602885
vt 0.822357 0.121631
vt 0.820387 0.045780
vt 0.845889 0.201100
vt 0.597227 0.394864
vt 0.600816 0.211792
vt 0.939224 0.559823
vt 0.729122 0.485358
vt 0.735073 0.397362
vt 0.761852 0.501844
vt 0.755079 0.618190
vt 0.935777 0.722843
vt 0.863151 0.535740
vt 0.645140 0.227423
vt 0.953635 0.733732
vt 0.878160 0.704688
vt 0.829100 0.307198
vt 0.779492 0.285865
vt 0.772211 0.090073
vt 0.727548 0.222258
vt 0.854221 0.481782
vt 0.856021 0.248176
vt 0.625051 0.493005
vt 0.596460 0.494411
vt 0.843872 0.213395
vt 0.698332 0.580497
vt 0.673791 0.569852
vt 0.778544 0.044311
vt 0.890054 0.089478
vt 0.935947 0.048196
vt 0.620724 0.597168
vn -0.6781 -0.1260 -0.7240
vn -0.8762 0.4819 0.0058
vn 0.8217 0.0274 0.5693
vn 0.3015 0.8241 -0.4795
vn 0.0000 0.0000 -1.0000
vn -0.6277 0.6120 -0.4811
vn -0.1208 -0.7036 0.7003
vn -0.0505 -0.9987 -0.0112
vn 0.9735 -0.1136 0.1986
vn 0.0121 0.2227 0.9748
vn -0.6191 -0.6731 -0.4046
vn -0.0157 0.9996 -0.0254
vn 0.8601 -0.5100 -0.0086
vn 0.0305 0.7913 0.6106
vn 0.6159 -0.6159 0.4913
vn 0.7243 -0.5602 -0.4020
vn 0.9124 -0.1653 -0.3743
vn 0.9270 -0.0628 0.3698
vn 0.9242 0.3246 0.2011
vn 0.9027 -0.4295 0.0270
vn -0.1047 0.6702 -0.7348
vn 0.1174 -0.8012 -0.5867
vn 0.9282 -0.1961 -0.3162
vn -0.9877 -0.0500 -0.1483
vn 0.1703 -0.0502 -0.9841
vn -0.5989 0.5844 0.5475
vn -0.0987 0.5455 -0.8323
vn 0.0434 0.9640 -0.2622
vn 0.4714 0.7899 -0.3923
vn 0.7383 0.6599 0.1394
vn 0.0985 0.9948 -0.0257
vn -0.7304 -0.6169 -0.2931
vn -0.7064 -0.7019 -0.0907
vn -0.6192 -0.5591 0.5514
vn -0.7141 0.1604 0.6814
vn -0.3909 -0.9118 -0.1262
vn -0.7416 -0.1805 -0.6461
vn -0.7361 0.3927 -0.5513
vn -0.9316 -0.1427 -0.3342
vn 0.0574 -0.3668 -0.9285
vn 0.6558 0.0673 0.7519
vn -0.1077 -0.5978 0.7943
vn 0.0716 0.6870 0.7231
vn 0.7591 0.5238 0.3865
vn -0.8238 0.4543 -0.3390
vn -0.9296 0.3685 -0.0055
usemtl (null)
s off
f 15/1/1 16/2/1 30/3/1 31/4/1
f 21/5/2 23/6/2 20/7/2
f 36/8/3 38/9/3 11/10/3 9/11/3
f 19/12/4 18/13/4 5/14/4
f 16/2/5 15/1/5 12/15/5 13/16/5
f 31/4/6 33/17/6 24/18/6
f 28/19/7 3/20/7 38/21/7 42/22/7
f 26/23/8 1/24/8 3/25/8 28/26/8
f 6/27/9 4/28/9 8/29/9 10/30/9
f 37/31/10 35/32/10 39/33/10 41/34/10
f 34/35/11 30/36/11 26/37/11
f 18/13/12 24/18/12 22/38/12 2/39/12
f 3/25/13 1/24/13 7/40/13 11/10/13
f 2/41/14 22/42/14 40/43/14 36/44/14
f 11/10/15 38/9/15 3/25/15
f 1/24/16 14/45/16 7/40/16
f 4/28/17 6/27/17 7/40/17 5/46/17
f 10/30/18 8/29/18 9/11/18 11/10/18
f 8/29/19 4/28/19 5/46/19 9/11/19
f 6/27/20 10/30/20 11/10/20 7/40/20
f 19/12/21 31/4/21 24/18/21 17/47/21
f 1/24/22 26/23/22 30/48/22 14/45/22
f 5/46/23 7/40/23 14/45/23 19/49/23
f 29/50/24 25/51/24 33/52/24 34/35/24
f 13/16/25 12/15/25 19/12/25 14/53/25
f 25/51/26 40/43/26 22/42/26 21/5/26 20/7/26
f 12/15/27 15/1/27 31/4/27 19/12/27
f 24/18/28 18/13/28 17/47/28
f 18/13/29 19/12/29 17/47/29
f 18/54/30 2/55/30 9/11/30 5/46/30
f 23/56/31 21/57/31 22/38/31 24/18/31
f 27/58/32 29/50/32 34/35/32 26/37/32
f 28/19/33 29/50/33 27/58/33
f 28/19/34 42/22/34 29/50/34
f 25/51/35 29/50/35 42/22/35 41/34/35 39/33/35 40/43/35
f 26/37/36 28/19/36 27/58/36
f 31/4/37 30/3/37 34/59/37 32/60/37
f 33/17/38 31/4/38 32/60/38
f 34/35/39 33/52/39 32/61/39
f 16/2/40 13/16/40 14/53/40 30/3/40
f 35/62/41 37/63/41 38/9/41 36/8/41
f 42/22/42 38/21/42 37/31/42 41/34/42
f 36/44/43 40/43/43 39/33/43 35/32/43
f 9/11/44 2/55/44 36/8/44
f 24/18/45 33/17/45 20/64/45 23/56/45
f 25/51/46 20/7/46 33/52/46
