# Blender v2.93.1 OBJ File: 'spaceshipInside.blend'
# www.blender.org
mtllib spaceshipInside.mtl
o Cube
v 0.988036 0.883934 -3.488129
v 4.769434 -3.380142 -2.980129
v -0.882931 1.349476 -3.253439
v -0.285901 -3.380142 -3.253439
v 12.381703 -2.337198 -10.515808
v 6.264011 -3.380142 -9.881287
v 7.119929 1.277812 -9.881287
v 1.040636 0.298315 -3.488129
v 15.854868 -0.120533 -13.263281
v 10.721217 -3.380142 -14.066006
v 1.642695 -0.157352 -3.253439
v 10.459508 0.327409 -11.035417
v 16.152063 0.262165 -15.496584
v 10.721217 0.464293 -14.066006
v 8.058137 0.689445 -9.881287
v 4.581996 0.872809 -6.500369
v 3.723649 1.306133 -7.262005
v -1.383646 -3.380142 -2.290635
v 0.519423 1.021888 -2.290635
v -1.692981 1.420912 -2.290635
v 4.244187 -3.380142 -2.290635
v 1.489185 0.181234 -2.290635
v 0.664619 0.518868 -2.272697
v 0.664619 0.518868 -2.272697
v 0.514273 -1.511490 0.194049
v 1.702550 -0.434244 -3.253439
v 10.611376 0.185686 -11.043042
v 16.591141 0.111608 -15.552671
v 11.321874 -0.043814 -14.066006
v 7.607462 0.662185 -9.881287
v 1.546797 -0.120644 -2.290635
v 6.040033 -0.253682 -7.139034
v 5.983847 0.058423 -7.208155
v 5.342412 0.491424 -7.407178
v 8.452628 0.132759 -9.428083
v 8.589059 -0.004660 -9.397812
v 11.553535 -2.423915 -9.663655
v 9.748273 0.104448 -10.340876
v 6.338522 -0.224522 -7.403535
v 8.659105 -2.892005 -6.685401
v 0.994786 1.331808 -5.503929
v 0.906802 -3.380142 -4.460334
v -0.760323 0.378185 -3.253439
v 0.976997 0.379123 -4.801050
v 0.156850 0.378680 -4.070460
v 0.245364 1.461215 -4.761133
v -0.256603 1.162790 -4.347244
v 0.237032 1.277741 -5.687886
v 0.401136 0.325055 -5.454795
v -0.419011 0.324613 -4.724205
v 3.915713 8.333379 -10.456060
v 3.390782 7.948640 -10.528457
v 6.927379 10.356014 -16.007689
v 7.394046 10.022772 -16.521179
v 6.391797 10.546852 -16.661432
v 6.376918 10.510621 -17.374388
v 3.146549 7.403469 -9.597807
v 3.644410 7.849325 -10.039598
v 4.236862 8.665000 -10.967513
v 0.174755 11.327321 -5.940027
v -0.401106 11.083033 -6.593771
v -0.470503 10.934780 -5.977747
v -0.743377 10.562256 -6.032344
v -0.808551 10.648324 0.013613
v -0.124204 10.848008 -5.336893
v -0.145676 10.857761 -3.731931
v -0.399390 10.827762 -5.447520
v -0.425354 10.837821 -3.682202
v -0.141468 9.189285 -5.423267
v -0.162940 9.199039 -3.713593
v -0.416655 9.246107 -5.429181
v -0.442619 9.256166 -3.663864
v 3.916442 8.798575 -11.137170
v 5.049432 8.290459 -10.955385
v 3.780014 8.087560 -10.836019
v 0.988036 0.883934 3.488129
v 4.769434 -3.380142 2.980129
v 0.534531 1.101763 0.000000
v 4.262108 -3.380142 0.000000
v -0.882931 1.349476 3.253439
v -0.285901 -3.380142 3.253439
v -1.738769 1.497721 0.000000
v -1.738769 -3.380142 0.000000
v 12.381703 -2.337198 10.515808
v 6.264011 -3.380142 9.881287
v 7.119929 1.277812 9.881287
v 1.040636 0.298315 3.488129
v -1.738769 0.990407 0.000000
v 15.854868 -0.120533 13.263281
v 10.721217 -3.380142 14.066006
v 1.642695 -0.157352 3.253439
v -1.738769 0.464293 0.000000
v 1.507106 0.267348 0.000000
v 10.459508 0.327409 11.035417
v 16.152063 0.262165 15.496584
v 10.721217 0.464293 14.066006
v 0.542893 0.536672 0.000000
v 8.058137 0.689445 9.881287
v 4.581996 0.872809 6.500369
v 3.723649 1.306133 7.262005
v -1.383646 -3.380142 2.290635
v 0.519423 1.021888 2.290635
v -1.692981 1.420912 2.290635
v 4.244187 -3.380142 2.290635
v 1.489185 0.181234 2.290635
v 0.664619 0.518868 2.272697
v 0.542893 0.565193 0.000000
v 0.664619 0.518868 2.272697
v 0.514273 -1.511490 -0.194049
v 1.702550 -0.434244 3.253439
v 1.558176 -0.031056 0.000000
v 10.611376 0.185686 11.043042
v 16.591141 0.111608 15.552671
v 11.321874 -0.043814 14.066006
v -1.138112 -0.043814 0.000000
v 7.607462 0.662185 9.881287
v 1.546797 -0.120644 2.290635
v 6.040033 -0.253682 7.139034
v 5.983847 0.058423 7.208155
v 5.342412 0.491424 7.407178
v 8.452628 0.132759 9.428083
v 8.589059 -0.004660 9.397812
v 11.553535 -2.423915 9.663655
v 9.748273 0.104448 10.340876
v 6.338522 -0.224522 7.403535
v 8.659105 -2.892005 6.685401
v 0.994786 1.331808 5.503929
v 0.906802 -3.380142 4.460334
v -0.760323 0.378185 3.253439
v 0.976997 0.379123 4.801050
v 0.156850 0.378680 4.070460
v 0.245364 1.461215 4.761133
v -0.256603 1.162790 4.347244
v 0.237032 1.277741 5.687886
v 0.401136 0.325055 5.454795
v -0.419011 0.324613 4.724205
v 3.915713 8.333379 10.456060
v 3.390782 7.948640 10.528457
v 6.927379 10.356014 16.007689
v 7.394046 10.022772 16.521179
v 6.391797 10.546852 16.661432
v 6.376918 10.510621 17.374388
v 3.146549 7.403469 9.597807
v 3.644410 7.849325 10.039598
v 4.236862 8.665000 10.967513
v 0.174755 11.327321 5.940027
v -0.401106 11.083033 6.593771
v -0.470503 10.934780 5.977747
v -0.743377 10.562256 6.032344
v 0.058788 11.334986 0.000000
v -0.517073 11.206010 0.000000
v -0.236796 10.899150 0.000000
v -0.808551 10.648324 -0.013613
v -0.124204 10.848008 5.336893
v -0.145676 10.857761 3.731931
v -0.399390 10.827762 5.447520
v -0.425354 10.837821 3.682202
v -0.141468 9.189285 5.423267
v -0.162940 9.199039 3.713593
v -0.416655 9.246107 5.429181
v -0.442619 9.256166 3.663864
v 3.916442 8.798575 11.137170
v 5.049432 8.290459 10.955385
v 3.780014 8.087560 10.836019
vt 0.554426 0.334888
vt 0.555318 0.409444
vt 0.516332 0.410932
vt 0.513756 0.335850
vt 0.125000 0.620469
vt 0.375000 0.620470
vt 0.375000 0.750000
vt 0.125000 0.750000
vt 0.574198 0.299626
vt 0.574853 0.331005
vt 0.508186 0.331219
vt 0.509564 0.299138
vt 0.590981 0.221722
vt 0.586473 0.003038
vt 0.722073 -0.025650
vt 0.725381 0.174991
vt 0.699560 0.186906
vt 0.049563 0.033042
vt 0.000000 0.000000
vt 0.524554 0.250000
vt 0.504787 0.250000
vt 0.375000 0.500000
vt 0.125000 0.500000
vt 0.125000 0.500000
vt 0.125000 0.500000
vt 0.375000 0.500000
vt 0.375000 0.500000
vt 0.375000 0.500000
vt 0.566644 0.334598
vt 0.657389 0.293248
vt 0.672981 0.341151
vt 0.603191 0.382348
vt 0.582237 0.394717
vt 0.555168 0.410696
vt 0.756609 0.246826
vt 0.835424 0.155623
vt 0.999386 0.115730
vt 0.814052 0.249084
vt 0.125000 0.500000
vt 0.375000 0.500000
vt 0.839264 0.113455
vt 0.831573 -0.002303
vt 0.952754 -0.017454
vt 1.027241 -0.033592
vt 0.524554 0.500000
vt 0.504788 0.500000
vt 0.375000 0.250000
vt 0.573659 0.250000
vt 0.574079 0.250000
vt 0.574454 0.250000
vt 0.375000 0.250000
vt 0.618149 0.288637
vt 0.610463 0.257393
vt 0.718137 0.213627
vt 0.714974 0.253309
vt 0.587868 0.233195
vt 0.589526 0.261122
vt 0.506254 0.259396
vt 0.506396 0.234247
vt 0.375000 0.129531
vt 0.625000 0.129531
vt 0.625000 0.250000
vt 0.832587 0.151007
vt 0.999517 0.031095
vt 0.999263 0.125082
vt 0.616630 0.292080
vt 0.697029 0.260258
vt 0.747784 0.240168
vt 0.699174 0.274135
vt 0.618575 0.312854
vt 0.576086 0.260995
vt 0.575657 0.299247
vt 0.508407 0.300619
vt 0.505997 0.263698
vt 0.623006 0.253340
vt 0.627606 0.285546
vt 0.575777 0.297692
vt 0.578466 0.262675
vt 0.663885 0.343981
vt 0.751878 0.250192
vt 0.808993 0.249586
vt 0.524554 0.000000
vt 0.580599 0.000000
vt 0.625000 0.000000
vt 0.375000 0.000000
vt 0.504788 0.000000
vt 0.633687 0.219518
vt 0.633419 0.251671
vt 0.631977 0.286592
vt 0.634559 0.305031
vt 0.575971 0.329381
vt 0.575195 0.300032
vt 0.575320 0.333702
vt 0.574533 0.398548
vt 0.554745 0.409444
vt 0.554283 0.334124
vt 0.570533 0.221821
vt 0.567339 0.005889
vt 0.505289 0.230090
vt 0.502717 -0.001872
vt 0.375000 0.250000
vt 0.835283 0.149173
vt 0.834302 0.121649
vt 1.000878 -0.014577
vt 0.999674 0.039469
vt 0.375000 0.250000
vt 0.622504 0.251772
vt 0.622771 0.219518
vt 0.744072 0.174745
vt 0.745148 0.206853
vt 0.671147 0.233320
vt 0.746274 0.208474
vt 0.753131 0.244913
vt 0.673587 0.271098
vt 0.791368 0.177083
vt 0.788218 0.149704
vt 0.808324 0.134778
vt 0.823294 0.123664
vt 0.828396 0.153234
vt 0.753131 0.245721
vt 0.746274 0.209282
vt 0.829365 0.155091
vt 0.749242 0.171813
vt 0.574454 0.250000
vt 0.574079 0.250000
vt 0.625000 0.250000
vt 0.625000 0.250000
vt 0.819331 0.130344
vt 0.812079 0.002798
vt 0.782311 0.142517
vt 0.625000 0.250000
vt 0.625000 0.250000
vt 0.625000 0.250000
vt 0.591958 0.250000
vt 0.625000 0.250000
vt 0.639232 0.364467
vt 0.641634 0.358174
vt 0.834735 0.700497
vt 0.820848 0.690446
vt 0.625000 0.250000
vt 0.625000 0.250000
vt 0.625000 0.250000
vt 0.625000 0.250000
vt 0.625000 0.250000
vt 0.625000 0.250000
vt 0.625000 0.250000
vt 0.625000 0.250000
vt 0.625000 0.250000
vt 0.582237 0.394717
vt 0.603191 0.382348
vt 0.603191 0.382348
vt 0.582237 0.394717
vt 0.879884 0.770220
vt 0.915696 0.732419
vt 0.998273 0.804653
vt 1.001719 0.891459
vt 0.625000 0.250000
vt 0.625000 0.250000
vt 0.842005 0.719661
vt 0.853825 0.744004
vt 0.688258 0.869397
vt 0.684994 0.839532
vt 0.625000 0.250000
vt 0.625000 0.250000
vt 0.625000 0.250000
vt 0.625000 0.250000
vt 0.625000 0.250000
vt 0.842900 0.717051
vt 0.682470 0.828043
vt 0.683485 0.800696
vt 0.625000 0.250000
vt 0.625000 0.250000
vt 0.668896 0.832383
vt 0.604448 0.838719
vt 0.594311 0.835638
vt 0.530177 0.839911
vt 0.506683 0.847133
vt 0.505637 0.813368
vt 0.505272 0.868054
vt 0.506967 0.823627
vt 0.596152 0.828831
vt 0.669681 0.828918
vt 0.625000 0.250000
vt 0.625000 0.250000
vt 0.625000 0.250000
vt 0.625000 0.250000
vt 0.625000 0.250000
vt 0.625000 0.250000
vt 0.593453 0.724139
vt 0.665867 0.723582
vt 0.625000 0.250000
vt 0.625000 0.250000
vt 0.658001 0.347218
vt 0.829165 0.700367
vt 0.641865 0.359567
vt 0.554426 0.334888
vt 0.555318 0.409444
vt 0.580599 0.750000
vt 0.580599 1.000000
vt 0.625000 1.000000
vt 0.625000 0.750000
vt 0.125000 0.620469
vt 0.375000 0.620470
vt 0.574198 0.299626
vt 0.574853 0.331005
vt 0.590981 0.221722
vt 0.699560 0.186906
vt 0.725381 0.174991
vt 0.722073 -0.025650
vt 0.586473 0.003038
vt 0.049563 0.033042
vt 0.504787 0.250000
vt 0.524554 0.250000
vt 0.000000 0.000000
vt 0.375000 0.500000
vt 0.375000 0.500000
vt 0.375000 0.500000
vt 0.375000 0.500000
vt 0.125000 0.500000
vt 0.125000 0.500000
vt 0.125000 0.500000
vt 0.566644 0.334598
vt 0.555168 0.410696
vt 0.582237 0.394717
vt 0.603191 0.382348
vt 0.672981 0.341151
vt 0.657389 0.293248
vt 0.756609 0.246826
vt 0.814052 0.249084
vt 0.999386 0.115730
vt 0.835424 0.155623
vt 0.375000 0.500000
vt 0.125000 0.500000
vt 0.839264 0.113455
vt 1.027241 -0.033592
vt 0.952754 -0.017454
vt 0.831573 -0.002303
vt 0.504788 0.500000
vt 0.524554 0.500000
vt 0.375000 0.250000
vt 0.375000 0.250000
vt 0.574454 0.250000
vt 0.574079 0.250000
vt 0.573659 0.250000
vt 0.618149 0.288637
vt 0.714974 0.253309
vt 0.718137 0.213627
vt 0.610463 0.257393
vt 0.587868 0.233195
vt 0.589526 0.261122
vt 0.375000 0.129531
vt 0.625000 0.250000
vt 0.625000 0.129531
vt 0.504788 0.750000
vt 0.504788 1.000000
vt 0.524554 1.000000
vt 0.524554 0.750000
vt 0.832587 0.151007
vt 0.999263 0.125082
vt 0.999517 0.031095
vt 0.616630 0.292080
vt 0.618575 0.312854
vt 0.699174 0.274135
vt 0.747784 0.240168
vt 0.697029 0.260258
vt 0.576086 0.260995
vt 0.575657 0.299247
vt 0.623006 0.253340
vt 0.578466 0.262675
vt 0.575777 0.297692
vt 0.627606 0.285546
vt 0.663885 0.343981
vt 0.808993 0.249586
vt 0.751878 0.250192
vt 0.633687 0.219518
vt 0.633419 0.251671
vt 0.631977 0.286592
vt 0.575195 0.300032
vt 0.575971 0.329381
vt 0.634559 0.305031
vt 0.575320 0.333702
vt 0.554283 0.334124
vt 0.554745 0.409444
vt 0.574533 0.398548
vt 0.567339 0.005889
vt 0.570533 0.221821
vt 0.375000 1.000000
vt 0.375000 0.250000
vt 0.835283 0.149173
vt 0.999674 0.039469
vt 1.000878 -0.014577
vt 0.834302 0.121649
vt 0.375000 0.250000
vt 0.622504 0.251772
vt 0.745148 0.206853
vt 0.744072 0.174745
vt 0.622771 0.219518
vt 0.671147 0.233320
vt 0.673587 0.271098
vt 0.753131 0.244913
vt 0.746274 0.208474
vt 0.791368 0.177083
vt 0.828396 0.153234
vt 0.823294 0.123664
vt 0.808324 0.134778
vt 0.788218 0.149704
vt 0.753131 0.245721
vt 0.829365 0.155091
vt 0.746274 0.209282
vt 0.749242 0.171813
vt 0.574454 0.250000
vt 0.625000 0.250000
vt 0.625000 0.250000
vt 0.574079 0.250000
vt 0.819331 0.130344
vt 0.812079 0.002798
vt 0.782311 0.142517
vt 0.591958 0.250000
vt 0.625000 0.250000
vt 0.625000 0.250000
vt 0.625000 0.250000
vt 0.625000 0.250000
vt 0.639232 0.364467
vt 0.820848 0.690446
vt 0.834735 0.700497
vt 0.641634 0.358174
vt 0.625000 0.250000
vt 0.625000 0.250000
vt 0.625000 0.250000
vt 0.625000 0.250000
vt 0.625000 0.250000
vt 0.625000 0.250000
vt 0.625000 0.250000
vt 0.625000 0.250000
vt 0.625000 0.250000
vt 0.582237 0.394717
vt 0.582237 0.394717
vt 0.603191 0.382348
vt 0.603191 0.382348
vt 0.879884 0.770220
vt 1.001719 0.891459
vt 0.998273 0.804653
vt 0.915696 0.732419
vt 0.625000 0.250000
vt 0.625000 0.250000
vt 0.842005 0.719661
vt 0.684994 0.839532
vt 0.688258 0.869397
vt 0.853825 0.744004
vt 0.625000 0.250000
vt 0.625000 0.250000
vt 0.625000 0.250000
vt 0.625000 0.250000
vt 0.683485 0.800696
vt 0.682470 0.828043
vt 0.842900 0.717051
vt 0.505637 0.813368
vt 0.530177 0.839911
vt 0.594311 0.835638
vt 0.604448 0.838719
vt 0.668896 0.832383
vt 0.669681 0.828918
vt 0.596152 0.828831
vt 0.625000 0.250000
vt 0.625000 0.250000
vt 0.625000 0.250000
vt 0.625000 0.250000
vt 0.625000 0.250000
vt 0.625000 0.250000
vt 0.665867 0.723582
vt 0.593453 0.724139
vt 0.625000 0.250000
vt 0.625000 0.250000
vt 0.658001 0.347218
vt 0.641865 0.359567
vt 0.829165 0.700367
vn 0.1744 0.9841 -0.0325
vn 0.0000 -1.0000 0.0000
vn 0.9896 0.1426 0.0201
vn 0.5135 0.6028 0.6108
vn -0.6421 -0.6218 -0.4484
vn 0.0917 -0.9956 0.0174
vn 0.2206 0.9444 0.2439
vn 0.3190 0.9354 0.1527
vn 0.3537 -0.9292 0.1075
vn 0.3005 0.7347 0.6083
vn -0.2507 -0.3179 -0.9144
vn -0.6833 -0.0697 -0.7268
vn 0.3958 0.7858 0.4753
vn 0.9839 0.1781 -0.0131
vn -0.7100 -0.0675 -0.7009
vn 0.0501 0.9975 0.0494
vn 0.6553 -0.1932 0.7302
vn 0.3212 0.9469 -0.0143
vn 0.4952 0.8629 -0.1011
vn 0.3411 0.8683 0.3601
vn -0.9993 -0.0319 0.0172
vn 0.9761 0.1981 0.0897
vn 0.9371 0.1752 0.3020
vn 0.2086 0.9776 0.0287
vn 0.7185 0.6749 0.1681
vn 0.7742 0.6327 -0.0173
vn 0.1339 -0.5702 -0.8105
vn 0.4201 0.7328 0.5353
vn -0.6956 0.1833 -0.6946
vn 0.6495 0.2136 0.7297
vn 0.4127 0.7614 0.5000
vn 0.4881 0.5585 0.6707
vn 0.3820 0.7310 0.5654
vn 0.5933 0.4077 0.6941
vn -0.8448 0.0421 -0.5335
vn 0.5411 0.5373 0.6469
vn 0.5150 0.5842 0.6273
vn -0.6486 -0.0020 -0.7612
vn -0.2720 0.1896 0.9434
vn -0.7250 -0.2303 -0.6491
vn 0.0415 -0.9981 0.0460
vn 0.5192 -0.3444 -0.7822
vn 0.3162 0.5012 0.8055
vn -0.9142 0.1939 -0.3558
vn 0.0018 0.9366 0.3504
vn 0.1056 -0.6425 -0.7589
vn 0.4714 0.8773 -0.0906
vn 0.5612 0.6719 0.4833
vn -0.0121 -0.9442 -0.3291
vn -0.9055 0.3302 -0.2665
vn 0.5917 -0.2944 0.7505
vn -0.8667 0.4983 -0.0207
vn -0.0462 0.7886 -0.6131
vn 0.5950 -0.1909 0.7807
vn -0.7828 -0.3180 -0.5349
vn 0.0091 0.0083 0.9999
vn -0.3003 0.9537 -0.0155
vn 0.4578 -0.8891 -0.0043
vn 0.8337 -0.5521 -0.0107
vn -0.2010 -0.9796 0.0028
vn -0.9998 0.0107 -0.0148
vn 0.9999 -0.0107 0.0130
vn 0.1757 0.0093 0.9844
vn 0.2083 0.0183 -0.9779
vn 0.5376 0.3350 0.7738
vn 0.1744 0.9841 0.0325
vn 0.0000 0.0000 -1.0000
vn 0.9896 0.1426 -0.0201
vn 0.5135 0.6028 -0.6108
vn -0.6421 -0.6218 0.4484
vn 0.0917 -0.9956 -0.0174
vn 0.2206 0.9444 -0.2439
vn 0.3190 0.9354 -0.1527
vn 0.3537 -0.9292 -0.1075
vn 0.3005 0.7347 -0.6083
vn -0.2507 -0.3179 0.9144
vn -0.6833 -0.0697 0.7268
vn 0.3958 0.7858 -0.4753
vn 0.9839 0.1781 0.0131
vn -0.7100 -0.0675 0.7009
vn 0.0501 0.9975 -0.0494
vn 0.6553 -0.1932 -0.7302
vn 0.3212 0.9469 0.0143
vn 0.4952 0.8629 0.1011
vn 0.3411 0.8683 -0.3601
vn -0.9993 -0.0319 -0.0172
vn 0.9761 0.1981 -0.0897
vn 0.9371 0.1752 -0.3020
vn 0.2086 0.9776 -0.0287
vn 0.7185 0.6749 -0.1681
vn 0.7742 0.6327 0.0173
vn 0.1339 -0.5702 0.8105
vn 0.4201 0.7328 -0.5353
vn -0.6956 0.1833 0.6946
vn 0.6495 0.2136 -0.7297
vn 0.4127 0.7614 -0.5000
vn 0.4881 0.5585 -0.6707
vn 0.3820 0.7310 -0.5654
vn 0.5933 0.4077 -0.6941
vn -0.8448 0.0421 0.5335
vn 0.5411 0.5373 -0.6469
vn 0.5150 0.5842 -0.6273
vn -0.6486 -0.0020 0.7612
vn -0.2720 0.1896 -0.9434
vn -0.7250 -0.2303 0.6491
vn 0.0415 -0.9981 -0.0460
vn 0.5192 -0.3444 0.7822
vn 0.3162 0.5012 -0.8055
vn -0.9142 0.1939 0.3558
vn 0.0018 0.9366 -0.3504
vn 0.1056 -0.6425 0.7589
vn 0.4714 0.8773 0.0906
vn 0.5612 0.6719 -0.4833
vn -0.0121 -0.9442 0.3291
vn -0.9055 0.3302 0.2665
vn 0.5917 -0.2944 -0.7505
vn -0.8667 0.4983 0.0207
vn -0.0462 0.7886 0.6131
vn 0.5950 -0.1909 -0.7807
vn -0.7828 -0.3180 0.5349
vn 0.0091 0.0083 -0.9999
vn -0.3003 0.9537 0.0155
vn 0.4578 -0.8891 0.0043
vn 0.8337 -0.5521 0.0107
vn -0.2010 -0.9796 -0.0028
vn -0.9998 0.0107 0.0148
vn 0.9999 -0.0107 -0.0130
vn 0.1757 0.0093 -0.9844
vn 0.2083 0.0183 0.9779
vn 0.5376 0.3350 -0.7738
usemtl Material
s off
f 19/1/1 20/2/1 82/3/1 78/4/1
f 18/5/2 21/6/2 79/7/2 83/8/2
f 23/9/3 19/10/3 78/11/3 97/12/3
f 26/13/4 2/14/4 40/15/4 39/16/4 32/17/4
f 30/18/5 7/19/5 14/20/5 29/21/5
f 2/22/6 4/23/6 42/24/6 6/25/6 5/26/6 37/27/6 40/28/6
f 1/29/7 16/30/7 17/31/7 41/32/7 46/33/7 3/34/7
f 15/35/8 12/36/8 14/37/8 7/38/8
f 5/26/9 6/25/9 10/39/9 9/40/9
f 27/41/10 5/42/10 9/43/10 28/44/10
f 29/21/11 14/20/11 13/45/11 28/46/11
f 4/47/12 43/48/12 45/49/12 44/50/12 42/51/12
f 8/52/13 11/53/13 33/54/13 34/55/13
f 31/56/14 22/57/14 93/58/14 111/59/14
f 18/60/15 20/61/15 3/62/15 43/48/15 4/47/15
f 12/63/16 13/64/16 14/65/16
f 8/66/17 34/67/17 15/68/17 16/69/17 1/70/17
f 22/71/18 23/72/18 97/73/18 93/74/18
f 11/75/19 8/76/19 24/77/19 22/78/19
f 17/79/20 16/30/20 15/80/20 7/81/20
f 92/82/21 88/83/21 82/84/21 20/61/21 18/60/21 83/85/21 115/86/21
f 26/87/22 11/88/22 22/57/22 31/56/22
f 8/89/23 1/90/23 19/91/23 23/92/23
f 4/23/2 2/22/2 21/6/2 18/5/2
f 1/93/24 3/94/24 20/95/24 19/96/24
f 2/14/25 26/13/25 31/97/25 21/98/25
f 21/98/26 31/97/26 111/99/26 79/100/26
f 10/101/27 29/21/27 28/46/27 9/40/27
f 12/102/28 27/103/28 28/104/28 13/105/28
f 6/106/29 30/18/29 29/21/29 10/101/29
f 11/107/30 26/108/30 32/109/30 33/110/30
f 33/111/31 35/112/31 15/113/31 34/114/31
f 35/115/32 36/116/32 38/117/32 27/118/32 12/119/32
f 15/120/33 35/121/33 12/122/33
f 36/116/34 35/115/34 33/110/34 32/109/34 39/123/34
f 49/124/35 50/125/35 47/126/35 48/127/35
f 38/128/36 37/129/36 5/42/36 27/41/36
f 39/16/37 40/15/37 37/129/37 38/128/37 36/130/37
f 42/51/38 44/50/38 41/131/38 17/132/38 7/133/38 30/134/38 6/106/38
f 45/49/39 46/135/39 47/126/39 50/125/39
f 46/135/40 45/49/40 43/48/40 3/62/40
f 44/50/41 45/49/41 50/125/41 49/124/41
f 41/131/42 44/50/42 49/124/42 48/127/42
f 47/136/43 46/137/43 58/138/43 57/139/43
f 52/140/44 73/141/44 75/142/44 48/127/44 47/126/44 57/143/44
f 52/140/45 51/144/45 59/145/45 53/146/45 55/147/45 73/141/45
f 48/127/46 75/142/46 74/148/46 41/131/46
f 53/149/47 54/150/47 56/151/47 55/152/47
f 59/153/48 74/154/48 54/155/48 53/156/48
f 74/148/49 75/142/49 56/157/49 54/158/49
f 75/142/50 73/141/50 55/147/50 56/157/50
f 58/159/51 51/160/51 60/161/51 62/162/51
f 61/163/52 63/164/52 64/165/52 151/166/52
f 51/144/53 52/140/53 61/163/53 60/167/53
f 57/139/54 58/168/54 62/169/54 63/170/54
f 52/140/55 57/143/55 63/164/55 61/163/55
f 64/165/56 152/171/56 150/172/56 151/166/56
f 60/167/57 61/163/57 151/166/57 150/172/57
f 63/170/58 62/169/58 65/173/58 67/174/58 68/175/58 66/176/58 152/177/58 64/178/58
f 62/162/59 60/161/59 150/179/59 152/180/59 66/181/59 65/182/59
f 70/183/60 72/184/60 71/185/60 69/186/60
f 68/187/61 67/188/61 71/185/61 72/184/61
f 65/182/62 66/181/62 70/189/62 69/190/62
f 66/191/63 68/187/63 72/184/63 70/183/63
f 67/188/64 65/192/64 69/186/64 71/185/64
f 41/193/65 74/154/65 59/153/65 51/160/65 58/194/65 46/195/65
f 102/196/66 78/4/66 82/3/66 103/197/66
f 97/198/67 88/199/67 82/200/67 78/201/67
f 101/202/2 83/8/2 79/7/2 104/203/2
f 106/204/68 97/12/68 78/11/68 102/205/68
f 110/206/69 118/207/69 125/208/69 126/209/69 77/210/69
f 116/211/70 114/212/70 96/213/70 86/214/70
f 77/215/71 126/216/71 123/217/71 84/218/71 85/219/71 128/220/71 81/221/71
f 76/222/72 80/223/72 132/224/72 127/225/72 100/226/72 99/227/72
f 98/228/73 86/229/73 96/230/73 94/231/73
f 84/218/74 89/232/74 90/233/74 85/219/74
f 112/234/75 113/235/75 89/236/75 84/237/75
f 114/212/76 113/238/76 95/239/76 96/213/76
f 81/240/77 128/241/77 130/242/77 131/243/77 129/244/77
f 87/245/78 120/246/78 119/247/78 91/248/78
f 117/249/79 111/59/79 93/58/79 105/250/79
f 101/251/80 81/240/80 129/244/80 80/252/80 103/253/80
f 111/254/67 115/255/67 92/256/67 93/257/67
f 94/258/81 96/259/81 95/260/81
f 87/261/82 76/262/82 99/263/82 98/264/82 120/265/82
f 105/266/83 93/74/83 97/73/83 106/267/83
f 93/257/67 92/256/67 88/199/67 97/198/67
f 91/268/84 105/269/84 108/270/84 87/271/84
f 100/272/85 86/273/85 98/274/85 99/227/85
f 92/82/86 115/86/86 83/85/86 101/251/86 103/253/86 82/84/86 88/83/86
f 110/275/87 117/249/87 105/250/87 91/276/87
f 87/277/88 106/278/88 102/279/88 76/280/88
f 81/221/2 101/202/2 104/203/2 77/215/2
f 76/281/89 102/282/89 103/283/89 80/284/89
f 77/210/90 104/285/90 117/286/90 110/206/90
f 79/7/67 83/287/67 115/255/67 111/254/67
f 104/285/91 79/100/91 111/99/91 117/286/91
f 90/288/92 89/232/92 113/238/92 114/212/92
f 94/289/93 95/290/93 113/291/93 112/292/93
f 85/293/94 90/288/94 114/212/94 116/211/94
f 91/294/95 119/295/95 118/296/95 110/297/95
f 119/298/96 120/299/96 98/300/96 121/301/96
f 121/302/97 94/303/97 112/304/97 124/305/97 122/306/97
f 98/307/98 94/308/98 121/309/98
f 122/306/99 125/310/99 118/296/99 119/295/99 121/302/99
f 135/311/100 134/312/100 133/313/100 136/314/100
f 124/315/101 112/234/101 84/237/101 123/316/101
f 125/208/102 122/317/102 124/315/102 123/316/102 126/209/102
f 128/241/103 85/293/103 116/318/103 86/319/103 100/320/103 127/321/103 130/242/103
f 131/243/104 136/314/104 133/313/104 132/322/104
f 132/322/105 80/252/105 129/244/105 131/243/105
f 130/242/106 135/311/106 136/314/106 131/243/106
f 127/321/107 134/312/107 135/311/107 130/242/107
f 133/323/108 143/324/108 144/325/108 132/326/108
f 138/327/109 143/328/109 133/313/109 134/312/109 164/329/109 162/330/109
f 138/327/110 162/330/110 141/331/110 139/332/110 145/333/110 137/334/110
f 134/312/111 127/321/111 163/335/111 164/329/111
f 139/336/112 141/337/112 142/338/112 140/339/112
f 145/340/113 139/341/113 140/342/113 163/343/113
f 163/335/114 140/344/114 142/345/114 164/329/114
f 164/329/115 142/345/115 141/331/115 162/330/115
f 144/346/116 148/347/116 146/348/116 137/349/116
f 147/350/117 151/166/117 153/351/117 149/352/117
f 137/334/118 146/353/118 147/350/118 138/327/118
f 143/324/119 149/354/119 148/355/119 144/356/119
f 138/327/120 147/350/120 149/352/120 143/328/120
f 153/351/121 151/166/121 150/172/121 152/171/121
f 146/353/122 150/172/122 151/166/122 147/350/122
f 149/354/123 153/357/123 152/177/123 155/358/123 157/359/123 156/360/123 154/361/123 148/355/123
f 148/347/124 154/362/124 155/363/124 152/180/124 150/179/124 146/348/124
f 159/364/125 158/365/125 160/366/125 161/367/125
f 157/368/126 161/367/126 160/366/126 156/369/126
f 154/362/127 158/370/127 159/371/127 155/363/127
f 155/372/128 159/364/128 161/367/128 157/368/128
f 156/369/129 160/366/129 158/365/129 154/373/129
f 127/374/130 132/375/130 144/376/130 137/349/130 145/340/130 163/343/130
l 24 107
l 108 107
